<?xml version="1.0" encoding="utf-8"?>
<!-- Generator: Adobe Illustrator 24.1.0, SVG Export Plug-In . SVG Version: 6.00 Build 0)  -->
<svg version="1.1" id="Слой_1" xmlns="http://www.w3.org/2000/svg" xmlns:xlink="http://www.w3.org/1999/xlink" x="0px" y="0px"
	 viewBox="0 0 1440 450" style="enable-background:new 0 0 1440 450;" xml:space="preserve">
<style type="text/css">
	.st0{fill:#FEC524;}
	.st1{fill:#FFBD36;}
	.st2{fill:#FFC750;}
	.st3{fill:#FFB138;}
	.st4{fill:#FFC23C;}
	.st5{fill:#FFC751;}
	.st6{fill:#FFD67F;}
	.st7{fill:#FFC23F;}
</style>
<rect x="-0.1" y="0.2" class="st0" width="1440" height="450"/>
<g>
	<rect x="470.5" y="361" class="st1" width="835.7" height="6.4"/>
	<g>
		<rect x="1110.8" y="233.7" class="st1" width="185.3" height="126.5"/>
		<rect x="1115.1" y="237.5" class="st1" width="172.9" height="11.2"/>
		<rect x="1117.6" y="254.2" class="st1" width="65.7" height="100.7"/>
		<rect x="1123.2" y="319.5" class="st2" width="51.4" height="29.2"/>
		<rect x="1123.2" y="261.8" class="st2" width="51.4" height="4.1"/>
		<rect x="1123.2" y="271.1" class="st2" width="51.4" height="4.1"/>
		<rect x="1123.2" y="282.3" class="st2" width="51.4" height="4.1"/>
		<rect x="1123.2" y="291.6" class="st2" width="51.4" height="4.1"/>
		<rect x="1201.9" y="254.2" class="st2" width="86.1" height="5"/>
		<rect x="1201.9" y="263.5" class="st2" width="86.1" height="5"/>
		<rect x="1201.9" y="274.6" class="st2" width="86.1" height="5"/>
		<rect x="1201.9" y="286.4" class="st2" width="86.1" height="65.5"/>
		<rect x="1209.3" y="293.6" class="st2" width="73.1" height="29.5"/>
		<rect x="1117.6" y="240.3" class="st1" width="93.9" height="5.3"/>
		<rect x="1247.4" y="240.3" class="st2" width="37.2" height="5.3"/>
		<polygon class="st3" points="1105.9,211.2 1095.5,205.2 1096.6,217.1 1099.6,215.2 1104.5,223 1107.8,220.9 1102.9,213.1 		"/>
		<rect x="658.2" y="194.8" class="st1" width="244.2" height="166.7"/>
		<rect x="663.9" y="199.7" class="st4" width="227.9" height="14.7"/>
		<rect x="667.2" y="221.8" class="st4" width="86.6" height="132.7"/>
		<rect x="674.6" y="307.8" class="st3" width="67.8" height="38.5"/>
		<rect x="674.6" y="231.9" class="st3" width="67.8" height="5.4"/>
		<rect x="674.6" y="244.1" class="st3" width="67.8" height="5.4"/>
		<rect x="674.6" y="258.8" class="st3" width="67.8" height="5.4"/>
		<rect x="674.6" y="271.1" class="st3" width="67.8" height="5.4"/>
		<rect x="806.6" y="221.2" class="st3" width="113.5" height="6.5"/>
		<rect x="806.6" y="233.4" class="st3" width="113.5" height="6.5"/>
		<rect x="806.6" y="248.1" class="st3" width="113.5" height="6.5"/>
		<rect x="806.6" y="263.6" class="st2" width="113.5" height="86.3"/>
		<rect x="816.4" y="273.2" class="st3" width="96.4" height="38.9"/>
		<rect x="667.2" y="203.4" class="st3" width="123.7" height="6.9"/>
		<rect x="866.6" y="202.8" class="st3" width="49" height="6.9"/>
		<path class="st3" d="M1249.8,353.1c0,4.2-3.4,7.7-7.6,7.7l-85.6,0.3c-4.2,0-7.7-3.4-7.7-7.6l-0.5-159.6c0-4.2,3.4-7.7,7.7-7.7
			l85.6-0.3c4.2,0,7.7,3.4,7.7,7.6L1249.8,353.1z"/>
		<polygon class="st2" points="1241.4,336.1 1156.4,336.3 1156,197 1241,196.8 		"/>
		<path class="st5" d="M1206.5,347.8c0,4-3.2,7.2-7.2,7.2c-4,0-7.2-3.2-7.2-7.2c0-4,3.2-7.2,7.2-7.2
			C1203.2,340.7,1206.5,343.9,1206.5,347.8z"/>
		<rect x="1166.8" y="217.3" class="st4" width="64.5" height="83.2"/>
		<rect x="1172.3" y="271.3" class="st6" width="50.5" height="24.2"/>
		<rect x="1172.3" y="223.7" class="st6" width="50.5" height="3.4"/>
		<rect x="1172.3" y="231.3" class="st6" width="50.5" height="3.4"/>
		<rect x="1172.3" y="240.6" class="st6" width="50.5" height="3.4"/>
		<rect x="1172.3" y="248.2" class="st6" width="50.5" height="3.4"/>
		<rect x="893.7" y="298" class="st1" width="110.6" height="54.5"/>
		<rect x="849.6" y="351" class="st1" width="200.4" height="10.4"/>
		<path class="st3" d="M1089.5,316.3c0,1.8-1.4,3.3-3.1,3.3h-284c-1.7,0-3.1-1.5-3.1-3.3v-176c0-1.8,1.4-3.3,3.1-3.3h284
			c1.7,0,3.1,1.5,3.1,3.3V316.3z"/>
		<rect x="808.6" y="146.7" class="st1" width="270.8" height="153.1"/>
		<rect x="808.6" y="146.4" class="st6" width="270.8" height="14.4"/>
		<rect x="833.4" y="160.3" class="st7" width="218.2" height="132.3"/>
		<rect x="843.4" y="165.4" class="st1" width="72.7" height="117.8"/>
		<rect x="924.7" y="165.4" class="st1" width="54.2" height="4.8"/>
		<rect x="924.7" y="174.4" class="st1" width="30" height="4.8"/>
		<rect x="924.7" y="183.9" class="st1" width="54.2" height="4.8"/>
		<rect x="924.7" y="192.9" class="st1" width="34.8" height="4.8"/>
		<g>
			<rect x="924.7" y="223.5" class="st1" width="54.2" height="4.8"/>
			<rect x="924.7" y="232.5" class="st1" width="30" height="4.8"/>
			<rect x="924.7" y="241.9" class="st1" width="54.2" height="4.8"/>
			<rect x="924.7" y="250.9" class="st1" width="34.8" height="4.8"/>
		</g>
		<path class="st1" d="M953.1,311.4c0,3.2-2.6,5.7-5.7,5.7c-3.2,0-5.7-2.6-5.7-5.7s2.6-5.7,5.7-5.7
			C950.6,305.7,953.1,308.3,953.1,311.4z"/>
		<path class="st3" d="M817.6,153.9c0,1.5-1.2,2.7-2.7,2.7c-1.5,0-2.7-1.2-2.7-2.7c0-1.5,1.2-2.7,2.7-2.7
			C816.4,151.2,817.6,152.4,817.6,153.9z"/>
		<path class="st3" d="M826.1,153.9c0,1.5-1.2,2.7-2.7,2.7c-1.5,0-2.7-1.2-2.7-2.7c0-1.5,1.2-2.7,2.7-2.7
			C824.9,151.2,826.1,152.4,826.1,153.9z"/>
		<path class="st3" d="M834.7,153.9c0,1.5-1.2,2.7-2.7,2.7c-1.5,0-2.7-1.2-2.7-2.7c0-1.5,1.2-2.7,2.7-2.7
			C833.5,151.2,834.7,152.4,834.7,153.9z"/>
		<path class="st1" d="M1241.2,130.7c0,4.5-3.7,8.2-8.2,8.2h-17.6c-4.5,0-8.2-3.7-8.2-8.2v-13c0-4.5,3.7-8.2,8.2-8.2h17.6
			c4.5,0,8.2,3.7,8.2,8.2V130.7z"/>
		<path class="st1" d="M1241.2,129.4c0,0,1.2,21-17.8,18.5c0,0,14.6-6.4,8.3-17.5L1241.2,129.4z"/>
		<rect x="1212.2" y="118.4" class="st6" width="23.9" height="2.2"/>
		<rect x="1212.2" y="122.8" class="st6" width="23.9" height="2.2"/>
		<rect x="1212.2" y="127.2" class="st6" width="23.9" height="2.2"/>
		<path class="st1" d="M1134.2,142.3c0,5.8,4.7,10.5,10.5,10.5h22.6c5.8,0,10.5-4.7,10.5-10.5v-16.6c0-5.8-4.7-10.5-10.5-10.5h-22.6
			c-5.8,0-10.5,4.7-10.5,10.5V142.3z"/>
		<path class="st1" d="M1134.2,140.7c0,0-1.5,26.8,22.7,23.7c0,0-25.4-7.5-10.6-22.4L1134.2,140.7z"/>
		<rect x="1140.6" y="126.6" class="st6" width="30.6" height="2.8"/>
		<rect x="1140.6" y="132.2" class="st6" width="30.6" height="2.8"/>
		<rect x="1140.6" y="137.9" class="st6" width="30.6" height="2.8"/>
		<path class="st1" d="M1250.1,172.7c0,2.4-1.9,4.3-4.3,4.3h-9.2c-2.4,0-4.3-1.9-4.3-4.3v-6.8c0-2.4,1.9-4.3,4.3-4.3h9.2
			c2.4,0,4.3,1.9,4.3,4.3V172.7z"/>
		<path class="st1" d="M1250.1,172.1c0,0,0.6,11-9.3,9.7c0,0,10.4-3.1,4.3-9.1L1250.1,172.1z"/>
		<rect x="1234.9" y="166.3" class="st6" width="12.5" height="1.1"/>
		<rect x="1234.9" y="168.6" class="st6" width="12.5" height="1.1"/>
		<rect x="1234.9" y="170.9" class="st6" width="12.5" height="1.2"/>
		<g>
			<g>
				<polygon class="st3" points="1106,354.8 1104.7,355.2 1105,357.3 1104.7,358.3 1101.7,362.2 1107.9,358.5 				"/>
			</g>
		</g>
		<g>
			<polygon class="st3" points="1106.9,352.6 1108.3,352.7 1108.5,354.8 1109,355.8 1112.8,358.9 1106,356.6 			"/>
		</g>
		<g>
			<polygon class="st3" points="1096.6,296.1 1095.7,328.1 1104.6,357.2 1107.3,355.9 1102.6,330 1112.4,297.1 			"/>
		</g>
		<g>
			<polygon class="st3" points="1105.7,297.6 1108.9,328.8 1105.7,354.7 1108.9,354.7 1115.2,328.4 1120.9,296.1 			"/>
		</g>
		<g>
			<g>
				<path class="st3" d="M1094.6,263.4l-18.2,6.2l-12.6-22.5l1.8-1.1l12.4,15.7l16.5-4.7c0,0,5.4-2,6.5,1.7
					C1100.9,258.9,1098.3,262.1,1094.6,263.4z"/>
			</g>
		</g>
		<g>
			<path class="st3" d="M1120.7,265.7l18,6.9l13.4-22l-1.8-1.2l-12.9,15.3l-16.3-5.3c0,0-5.3-2.2-6.5,1.5
				C1114.5,260.9,1117,264.2,1120.7,265.7z"/>
		</g>
		<g>
			<g>
				<polygon class="st3" points="1095.7,300.8 1121.8,298.6 1119.6,279.4 1124.7,260.3 1113.1,256.3 1095,256.3 1095.8,282.7 				
					"/>
			</g>
		</g>
		<g>
			<g>
				<g>
					<path class="st2" d="M1107.5,251.8l-0.8,5.1c0,0,6.7,3.8,5.8,1.3c-0.8-2.3-1.7-6.8-1.7-6.8L1107.5,251.8z"/>
				</g>
			</g>
		</g>
		<g>
			<path class="st4" d="M1106.9,246c-0.3,1.1-0.9,3.1-0.2,4.4c0.7,1.3,1.9,3.6,3.5,4c1.6,0.4,2.4-1.1,2.5-1.7c0.3-1,0-6.6-2.6-7.7
				C1108.1,244.2,1107.1,245.2,1106.9,246z"/>
		</g>
		<g>
			<path class="st3" d="M1111.2,245.9c0,0-1,1.2-2.7,1c-1.8-0.2-1.4,1.4-1.3,1.6c0,0.2,0.6,2.6,0,2.7c-0.6,0.1-1.7-2.8-1.1-4.9
				C1106.7,244.1,1109.9,243.5,1111.2,245.9z"/>
		</g>
		<g>
			<path class="st3" d="M1107.7,252c0,0,1.9,1.5,3.7,1.1c1.1-0.3,1.5-2.3,1.4-2.7c-0.1-0.4,1,3.7-1.5,4.1
				C1108.8,254.9,1107.7,252,1107.7,252z"/>
		</g>
		<g>
			<g>
				<g>
					<path class="st4" d="M1150.1,249.9c0,0,1.1-4.1,2.1-4.4c0.8-0.2,3.9,0.2-0.6,5.2L1150.1,249.9z"/>
				</g>
			</g>
		</g>
		<g>
			<g>
				<path class="st4" d="M1065.7,246.5c0,0-1.1-4.1-2.1-4.4c-0.8-0.2-3.9,0.2,0.6,5.2L1065.7,246.5z"/>
			</g>
		</g>
		<g>
			<g>
				<g>
					<g>
						<g>
							<path class="st6" d="M814.1,283.1l7,11.1l16.3-6.5l-0.5-1.4l-13.3,3l-6.7-9.6c0,0-2-3.4-4.2-1.9
								C812.7,277.9,812.7,280.8,814.1,283.1z"/>
						</g>
					</g>
					<g>
						<g>
							<path class="st6" d="M836.7,286.5c0,0,2.3-1.8,2.9-1.5c0.5,0.2,2,1.7-2.5,2.6L836.7,286.5z"/>
						</g>
					</g>
				</g>
			</g>
			<g>
				<g>
					<g>
						<g>
							<path class="st6" d="M794.7,286.4l7,11.1l16.3-6.5l-0.5-1.4l-13.3,3l-6.7-9.6c0,0-2-3.4-4.2-1.9
								C793.3,281.3,793.3,284.1,794.7,286.4z"/>
						</g>
					</g>
					<g>
						<g>
							<path class="st6" d="M817.3,289.9c0,0,2.3-1.8,2.9-1.5c0.5,0.2,2,1.7-2.5,2.6L817.3,289.9z"/>
						</g>
					</g>
				</g>
			</g>
			<g>
				<polygon class="st3" points="799.6,357.6 800.6,357.7 800.7,359.1 801.1,359.7 803.7,361.9 799,360.3 				"/>
			</g>
			<g>
				<polygon class="st3" points="796.3,355.1 797,355.7 796.4,357 796.3,357.7 797.3,360.9 794.2,357 				"/>
			</g>
			<g>
				<g>
					<g>
						<polygon class="st3" points="795.1,305.8 797.7,334.8 798.7,358.8 800.9,358.8 803.2,333.9 806,305.8 						"/>
					</g>
				</g>
			</g>
			<g>
				<g>
					<g>
						<polygon class="st3" points="815.8,305.8 815,332.3 797.3,356.5 795.1,355.4 807.3,333.5 803,307.3 803,305.8 						"/>
					</g>
				</g>
			</g>
			<g>
				<polygon class="st3" points="795.1,305.8 815.8,305.8 813.5,291.3 813.5,276.8 805.3,275.1 795.1,276.1 795.1,290.1 				"/>
			</g>
			<g>
				<path class="st3" d="M812.7,276.9c0,0-3.4,1.9,2.3,8.1l3.4-3.6C818.3,281.3,815.8,276.1,812.7,276.9z"/>
			</g>
			<g>
				<path class="st3" d="M795.7,276c0,0-3.8-0.5-3.1,7.8l4.9-0.8C797.4,283,798.6,277.4,795.7,276z"/>
			</g>
			<g>
				<g>
					<g>
						<g>
							<path class="st6" d="M803.6,276c0,0.7,2.9,0.7,2.9,0c0.1-2.1-0.3-3.7-0.3-3.7l-2.2-0.8C804,271.6,803.6,274.5,803.6,276z"/>
						</g>
					</g>
				</g>
				<g>
					<g>
						<g>
							<path class="st6" d="M805.8,273.5c0.2,0,2,0.3,2.3-0.6c0.3-0.9,0.2-4.2-0.2-5c-0.4-0.8-1.8-1.3-2.5-1
								c-0.7,0.3-2.4,2.2-1.5,5.4C803.9,272.4,804.7,273.4,805.8,273.5z"/>
						</g>
					</g>
				</g>
				<g>
					<path class="st3" d="M808.3,268c0,0-0.2,1.1-1,1c-0.8-0.1-2.2-0.3-2.3,0.3c-0.1,0.6,0.4,2.7,0,3.2c-0.4,0.5-1.5,1.1-1.7,0.4
						c-0.2-0.8-0.7-5.4,1.7-6.5C805,266.4,807.5,265.9,808.3,268z"/>
				</g>
			</g>
		</g>
		<g>
			<g>
				<g>
					<polygon class="st3" points="978.2,349.2 979.9,350.4 978.5,353.3 978.5,354.8 981,361.6 973.8,353.6 					"/>
				</g>
			</g>
		</g>
		<g>
			<g>
				<path class="st3" d="M972.9,310.8c0,0,18.1,4.4,24.5,7.5c1.9,0.9,3.2,3.7,0.7,8c-3.1,5.4-19.1,26.4-19.1,26.4l-2.5-2.1
					l11.9-25.8l-26.5-6.2L972.9,310.8z"/>
			</g>
		</g>
		<g>
			<g>
				<path class="st3" d="M964.8,280.1c0,0-3.2,1.3-3.3,3.5c-0.1,2.3-0.8,3.7-3,5.8c-2.2,2.2-5.6,5.9-4.7,8.4c1.4,4-1,6.7,0.5,8.7
					c1.5,2,4.2,0.4,4.9-0.9c0.7-1.3,6.1-8.2,6.7-10.5c0.6-2.3,3.6-1.4,4.5-3c0.9-1.6-0.2-3.8,0.2-4.7c1.4-3.3-0.4-5.6-2.4-7.1
					C966,278.9,964.8,280.1,964.8,280.1z"/>
			</g>
		</g>
		<g>
			<g>
				<polygon class="st3" points="1011.7,354.4 1013.6,352.8 1016.7,355 1018.5,355.5 1027.4,354.2 1015.9,360.5 				"/>
			</g>
		</g>
		<g>
			<g>
				<path class="st3" d="M960.6,319c0,0-0.2,6.3,6.8,8.1c0,0,6.5-0.3,18.4,0.1l26.7,28.2l2.6-1.7l-17.8-28.5c0,0-2.6-4.4-4-5.2
					c-4.9-2.9-24.1-5.6-24.1-5.6L960.6,319z"/>
			</g>
		</g>
		<g>
			<g>
				<g>
					<path class="st4" d="M999.1,302.3c0,0,3.6-1.6,4.3-1.1c0.6,0.5,1.6,2.7-4.3,1.8V302.3z"/>
				</g>
			</g>
		</g>
		<g>
			<g>
				<g>
					<path class="st3" d="M970.8,295.7l8,15.1l21.6-7.7l-0.4-1.4l-17.5,2.9l-8-12.9c0,0-2.4-4.6-5.3-2.7
						C969.1,289.1,969.1,292.6,970.8,295.7z"/>
				</g>
			</g>
		</g>
		<g>
			<g>
				<g>
					<path class="st3" d="M960.2,291.9c0,0-1.7,2.2-2,7.1c-0.3,4.9,2.7,10.9,2.7,10.9l-0.6,9.4l19.1-6.4l-1.2-8.2l-2.7-2.9l1-3.6
						l-6.4-9.6L960.2,291.9z"/>
				</g>
			</g>
		</g>
		<g>
			<rect x="985.1" y="309.1" class="st3" width="48.2" height="2.3"/>
		</g>
		<g>
			<rect x="989.5" y="360.9" class="st3" width="36.3" height="1.4"/>
		</g>
		<g>
			<g>
				<rect x="1005.9" y="310.3" class="st3" width="2.1" height="51.4"/>
			</g>
		</g>
		<g>
			<g>
				<g>
					<path class="st4" d="M964.3,286.4l-1.3,4.9c0,0,6.1,4.4,5.5,1.9c-0.6-2.3-0.9-6.9-0.9-6.9H964.3z"/>
				</g>
			</g>
		</g>
		<g>
			<path class="st4" d="M964.3,280.7c-0.4,1-1.2,3-0.6,4.3c0.6,1.3,1.4,3.7,2.9,4.3c1.5,0.6,1.9-1.1,2.2-1.7
				c0.3-0.6,1.1-6.2-1.3-7.5C965.7,279.1,964.6,280,964.3,280.7z"/>
		</g>
		<g>
			<g>
				<g>
					<path class="st3" d="M966.7,281.3c0,0-1.4,3-3.4,3.6c0,0-0.3-4.7,2.5-5.3c0,0,3.4-0.2,3.7,4
						C969.5,283.7,966.9,282.8,966.7,281.3z"/>
				</g>
			</g>
		</g>
		<g>
			<rect x="960.2" y="360.3" class="st6" width="15.8" height="1.3"/>
		</g>
		<g>
			<rect x="967" y="330.2" class="st6" width="1.9" height="30.8"/>
		</g>
		<g>
			<g>
				<rect x="953.8" y="326.4" class="st6" width="28.8" height="2"/>
			</g>
			<g>
				
					<rect x="952.7" y="299.7" transform="matrix(0.9843 -0.1767 0.1767 0.9843 -40.4925 173.4733)" class="st6" width="2" height="28.8"/>
			</g>
			<g>
				<rect x="959" y="328.4" class="st6" width="18.3" height="3.5"/>
			</g>
		</g>
		<g>
			<g>
				<polygon class="st6" points="1007.2,293.2 1001.3,309 1020.7,309 1027.4,293.2 				"/>
			</g>
		</g>
		<g>
			<polygon class="st6" points="1001.3,309 987,309 987,307.6 1001.8,307.6 			"/>
		</g>
		<g>
			<g>
				<g>
					<path class="st4" d="M979.1,319.4c0,0,3.8,0.2,4.2,0.9c0.4,0.6,0.6,3.4-4.6,0.5L979.1,319.4z"/>
				</g>
			</g>
		</g>
		<g>
			<g>
				<path class="st3" d="M957.7,298.8l-0.9,17.1l22.2,5.4l0.5-1.8l-16.4-6.8l0-15.2c0,0,0.4-5.1-3-5.1
					C960.1,292.3,958,295.3,957.7,298.8z"/>
			</g>
		</g>
		<path class="st3" d="M988.5,274.6c0,3,2.4,5.4,5.4,5.4h11.7c3,0,5.4-2.4,5.4-5.4v-8.6c0-3-2.4-5.4-5.4-5.4h-11.7
			c-3,0-5.4,2.4-5.4,5.4V274.6z"/>
		<path class="st3" d="M988.5,273.7c0,0-0.8,13.9,11.8,12.3c0,0-13.2-3.9-5.5-11.6L988.5,273.7z"/>
		<rect x="991.8" y="266.4" class="st6" width="15.9" height="1.5"/>
		<rect x="991.8" y="269.3" class="st6" width="15.9" height="1.5"/>
		<rect x="991.8" y="272.2" class="st6" width="15.9" height="1.5"/>
		<path class="st2" d="M1029.9,266.9c0,2-1.6,3.6-3.6,3.6h-7.7c-2,0-3.6-1.6-3.6-3.6v-5.7c0-2,1.6-3.6,3.6-3.6h7.7
			c2,0,3.6,1.6,3.6,3.6V266.9z"/>
		<path class="st2" d="M1029.9,266.3c0,0,0.5,9.2-7.8,8.1c0,0,8.7-2.6,3.6-7.7L1029.9,266.3z"/>
		<rect x="1017.2" y="261.5" class="st3" width="10.5" height="1"/>
		<rect x="1017.2" y="263.4" class="st3" width="10.5" height="1"/>
		<rect x="1017.2" y="265.4" class="st3" width="10.5" height="1"/>
	</g>
</g>
</svg>
