<svg width="31" height="31" viewBox="0 0 31 31" fill="none" xmlns="http://www.w3.org/2000/svg">
<g id="SVG" clip-path="url(#clip0_1_1164)">
<path id="SubscribeIconPolygon-1" d="M25.46 7.32001H28.78V25.5L21.46 25.62L25.37 24.14L25.46 7.32001Z" fill="#fac124ff"/>
<path id="SubscribeIconPolygon-2" d="M1.66 7.32001L4.67 7.46001L4.73 24.12L8.58 25.5L1.66 25.23V7.32001Z" fill="#fac124ff"/>
<g id="Clip path group">
<mask id="mask0_1_1164" style="mask-type:luminance" maskUnits="userSpaceOnUse" x="14" y="2" width="12" height="26">
<g id="subscribe-clip-path-1">
<path id="Vector" fill-rule="evenodd" clip-rule="evenodd" d="M14.48 26.97V6.66001L24.61 2.94001C24.6962 2.90709 24.7877 2.89015 24.88 2.89001C25.1037 2.89526 25.3163 2.9885 25.4717 3.1495C25.6271 3.3105 25.7127 3.52628 25.71 3.75001V23.84C25.712 24.0287 25.6512 24.2126 25.5371 24.3629C25.423 24.5131 25.2622 24.6212 25.08 24.67L14.56 27.4C14.49 27.42 14.54 26.97 14.48 26.97Z" fill="white"/>
</g>
</mask>
<g mask="url(#mask0_1_1164)">
<g id="Group">
<g id="Clip path group_2">
<mask id="mask1_1_1164" style="mask-type:luminance" maskUnits="userSpaceOnUse" x="-2" y="-1" width="34" height="34">
<g id="subscribe-clip-path-2">
<path id="Vector_2" d="M31.79 -0.769958H-1.41998V32.44H31.79V-0.769958Z" fill="white"/>
</g>
</mask>
<g mask="url(#mask1_1_1164)">
<g id="Group_2">
<path id="SubscribeIconElement-1" d="M14.35 27.43L14.08 6.69001L24.6 2.94001C24.69 2.9081 24.7846 2.89121 24.88 2.89001C25.1037 2.89526 25.3163 2.9885 25.4717 3.1495C25.6271 3.3105 25.7127 3.52628 25.71 3.75001V23.84C25.712 24.0287 25.6512 24.2126 25.5371 24.3629C25.4231 24.5131 25.2622 24.6212 25.08 24.67L14.56 27.41L14.35 27.43Z" stroke="#99A2AA" stroke-width="3" stroke-miterlimit="10"/>
</g>
</g>
</g>
</g>
</g>
</g>
<g id="Clip path group_3">
<mask id="mask2_1_1164" style="mask-type:luminance" maskUnits="userSpaceOnUse" x="4" y="2" width="13" height="26">
<g id="subscribe-clip-path-3">
<path id="Vector_3" fill-rule="evenodd" clip-rule="evenodd" d="M16.03 27.15C15.96 27.15 15.89 27.42 15.82 27.4L5.30001 24.64C5.12271 24.5926 4.96552 24.489 4.85196 24.3448C4.7384 24.2006 4.67457 24.0235 4.67001 23.84V3.75001C4.66732 3.52628 4.75295 3.3105 4.90834 3.1495C5.06372 2.9885 5.27632 2.89526 5.50001 2.89001C5.5923 2.89015 5.6838 2.90709 5.77001 2.94001L16.3 6.69001" fill="white"/>
</g>
</mask>
<g mask="url(#mask2_1_1164)">
<g id="Group_3">
<g id="Clip path group_4">
<mask id="mask3_1_1164" style="mask-type:luminance" maskUnits="userSpaceOnUse" x="-2" y="-1" width="34" height="34">
<g id="subscribe-clip-path-2_2">
<path id="Vector_4" d="M31.79 -0.769958H-1.41998V32.44H31.79V-0.769958Z" fill="white"/>
</g>
</mask>
<g mask="url(#mask3_1_1164)">
<g id="Group_4">
<path id="SubscribeIconElement-2" d="M16.03 27.43H15.82L5.30001 24.64C5.12271 24.5926 4.96552 24.489 4.85196 24.3448C4.7384 24.2006 4.67457 24.0235 4.67001 23.84V3.75001C4.66732 3.52628 4.75295 3.3105 4.90834 3.1495C5.06372 2.9885 5.27632 2.89526 5.50001 2.89001C5.59546 2.89121 5.69006 2.9081 5.78001 2.94001L16.3 6.69001" stroke="#99A2AA" stroke-width="3" stroke-miterlimit="10"/>
</g>
</g>
</g>
</g>
</g>
</g>
<g id="Clip path group_5">
<mask id="mask4_1_1164" style="mask-type:luminance" maskUnits="userSpaceOnUse" x="14" y="5" width="17" height="23">
<g id="subscribe-clip-path-5">
<path id="Vector_5" fill-rule="evenodd" clip-rule="evenodd" d="M15.12 27.38L29.28 26.62C29.5031 26.6125 29.715 26.5206 29.8728 26.3628C30.0306 26.205 30.1225 25.9931 30.13 25.77V6.77002C30.1274 6.65489 30.102 6.54143 30.0553 6.43619C30.0085 6.33096 29.9413 6.23606 29.8576 6.15699C29.7739 6.07793 29.6753 6.01626 29.5676 5.97559C29.4598 5.93491 29.3451 5.91602 29.23 5.92002H29.19L25.45 6.12002M14.08 27.43H14.19H14.08Z" fill="white"/>
</g>
</mask>
<g mask="url(#mask4_1_1164)">
<g id="Group_5">
<g id="Clip path group_6">
<mask id="mask5_1_1164" style="mask-type:luminance" maskUnits="userSpaceOnUse" x="-2" y="-1" width="34" height="34">
<g id="subscribe-clip-path-2_3">
<path id="Vector_6" d="M31.79 -0.769958H-1.41998V32.44H31.79V-0.769958Z" fill="white"/>
</g>
</mask>
<g mask="url(#mask5_1_1164)">
<g id="Group_6">
<path id="SubscribeIconElement-3" d="M15.12 27.38L29.28 26.62C29.5031 26.6125 29.715 26.5206 29.8728 26.3628C30.0306 26.205 30.1225 25.9931 30.13 25.77V6.77002C30.1274 6.65489 30.102 6.54143 30.0553 6.43619C30.0085 6.33096 29.9413 6.23606 29.8576 6.15699C29.7739 6.07793 29.6753 6.01626 29.5676 5.97559C29.4598 5.93491 29.3451 5.91602 29.23 5.92002H29.19L25.45 6.12002" stroke="#99A2AA" stroke-width="3" stroke-linecap="round" stroke-linejoin="round"/>
</g>
</g>
</g>
</g>
</g>
</g>
<g id="Clip path group_7">
<mask id="mask6_1_1164" style="mask-type:luminance" maskUnits="userSpaceOnUse" x="0" y="5" width="17" height="23">
<g id="subscribe-clip-path-7">
<path id="Vector_7" fill-rule="evenodd" clip-rule="evenodd" d="M15.19 27.33L1.1 26.57C0.876947 26.5626 0.665067 26.4706 0.507254 26.3128C0.349441 26.155 0.257486 25.9431 0.250003 25.72V6.72005C0.248215 6.59882 0.271784 6.47856 0.319198 6.36698C0.366611 6.2554 0.436823 6.15496 0.525329 6.0721C0.613836 5.98924 0.718683 5.9258 0.833145 5.88584C0.947608 5.84588 1.06916 5.83028 1.19 5.84005L4.93 6.04005M16.28 27.34H16.22H16.28Z" fill="white"/>
</g>
</mask>
<g mask="url(#mask6_1_1164)">
<g id="Group_7">
<g id="Clip path group_8">
<mask id="mask7_1_1164" style="mask-type:luminance" maskUnits="userSpaceOnUse" x="-2" y="-1" width="34" height="34">
<g id="subscribe-clip-path-2_4">
<path id="Vector_8" d="M31.79 -0.769958H-1.41998V32.44H31.79V-0.769958Z" fill="white"/>
</g>
</mask>
<g mask="url(#mask7_1_1164)">
<g id="Group_8">
<path id="SubscribeIconElement-4" d="M15.19 27.33L1.1 26.57C0.876947 26.5626 0.665067 26.4706 0.507254 26.3128C0.349441 26.155 0.257486 25.9431 0.250003 25.72V6.72005C0.248215 6.59882 0.271784 6.47856 0.319198 6.36698C0.366611 6.2554 0.436823 6.15496 0.525329 6.0721C0.613836 5.98924 0.718683 5.9258 0.833145 5.88584C0.947608 5.84588 1.06916 5.83028 1.19 5.84005L4.93 6.04005M16.28 27.34H16.23" stroke="#99A2AA" stroke-width="3" stroke-linecap="round" stroke-linejoin="round"/>
</g>
</g>
</g>
</g>
</g>
</g>
<g id="Clip path group_9">
<mask id="mask8_1_1164" style="mask-type:luminance" maskUnits="userSpaceOnUse" x="-2" y="-1" width="34" height="34">
<g id="subscribe-clip-path-2_5">
<path id="Vector_9" d="M31.79 -0.769958H-1.41998V32.44H31.79V-0.769958Z" fill="white"/>
</g>
</mask>
<g mask="url(#mask8_1_1164)">
<g id="Group_9">
<path id="SubscribeIconElement-5" d="M15.23 7.55005V27.43" stroke="#99A2AA" stroke-width="1.5" stroke-miterlimit="10" stroke-linecap="round"/>
</g>
</g>
</g>
</g>
<defs>
<clipPath id="clip0_1_1164">
<rect width="30" height="30" fill="white" transform="translate(0.190002 0.840027)"/>
</clipPath>
</defs>
</svg>
