<svg width="31" height="31" viewBox="0 0 31 31" fill="none" xmlns="http://www.w3.org/2000/svg">
<g id="SVG">
<g id="Group">
<g id="Group_2">
<path id="target-icon" d="M15.41 27.84C22.0374 27.84 27.41 22.4674 27.41 15.84C27.41 9.21261 22.0374 3.84003 15.41 3.84003C8.78259 3.84003 3.41 9.21261 3.41 15.84C3.41 22.4674 8.78259 27.84 15.41 27.84Z" stroke="#99A2AA" stroke-width="1.5"/>
<path id="target-icon_2" d="M15.41 22.84C19.276 22.84 22.41 19.706 22.41 15.84C22.41 11.974 19.276 8.84003 15.41 8.84003C11.544 8.84003 8.41 11.974 8.41 15.84C8.41 19.706 11.544 22.84 15.41 22.84Z" stroke="#99A2AA" stroke-width="1.5"/>
<path id="target-icon-with-fill" d="M15.41 21.84C18.7237 21.84 21.41 19.1537 21.41 15.84C21.41 12.5263 18.7237 9.84003 15.41 9.84003C12.0963 9.84003 9.41 12.5263 9.41 15.84C9.41 19.1537 12.0963 21.84 15.41 21.84Z" fill="white"/>
<path id="target-icon_3" d="M15.41 17.84C16.5146 17.84 17.41 16.9446 17.41 15.84C17.41 14.7355 16.5146 13.84 15.41 13.84C14.3054 13.84 13.41 14.7355 13.41 15.84C13.41 16.9446 14.3054 17.84 15.41 17.84Z" stroke="#99A2AA" stroke-width="1.5"/>
</g>
</g>
</g>
</svg>
