<svg width="186" height="50" viewBox="0 0 186 50" fill="none" xmlns="http://www.w3.org/2000/svg">
<g clip-path="url(#clip0_1_6)">
<path d="M33.4014 28.5526L17.0107 24.8246C12.7869 23.8667 9.82566 20.044 9.93896 15.6958C10.0523 11.3476 13.2086 7.68582 17.4764 6.95118C21.7443 6.21654 25.9342 8.61382 27.4822 12.6761C29.0302 16.7383 27.5048 21.3333 23.8395 23.6491C23.7695 23.7016 23.7357 23.7897 23.7524 23.8757C23.7692 23.9618 23.8336 24.0305 23.918 24.0526L31.2096 25.7105C31.3831 25.7509 31.564 25.6858 31.6724 25.5439C35.2045 20.8574 35.8803 14.5978 33.4306 9.25964C30.9808 3.92145 25.8037 0.372226 19.9623 0.0263173H19.2811C12.4735 -0.0806344 6.17962 3.65128 2.98327 9.69007C-0.213074 15.7288 0.226564 23.0572 4.12171 28.6667L18.7048 49.5877C18.7689 49.6759 18.8711 49.7281 18.9799 49.7281C19.0886 49.7281 19.1908 49.6759 19.2549 49.5877L33.611 29.1053C33.6872 29.0105 33.7076 28.8822 33.6644 28.7684C33.6212 28.6546 33.5211 28.5724 33.4014 28.5526Z" fill="#FFC627"/>
<path d="M47.4344 9.80701C47.5755 9.78854 47.7137 9.85795 47.7837 9.98245L52.6476 18.3158H52.8834L57.0138 10.0965C57.0998 9.90182 57.3008 9.78493 57.5116 9.80701H60.4806C60.5931 9.803 60.6991 9.8597 60.7586 9.95569C60.8181 10.0517 60.822 10.1723 60.7688 10.2719L52.211 25.4825C52.1133 25.6632 51.9169 25.767 51.7133 25.7456H48.8054C48.4823 25.7456 48.4561 25.5439 48.5696 25.307L50.8662 21.3596L43.9938 10.1842C43.8803 9.98245 43.9938 9.80701 44.1685 9.80701H47.4257H47.4344Z" fill="black"/>
<path d="M65.8772 9.80702C65.9899 9.79251 66.1029 9.83126 66.1832 9.91194C66.2635 9.99262 66.3021 10.1061 66.2876 10.2193V16.4737L72.8369 10.0439C73.0549 9.87822 73.3236 9.79443 73.5967 9.80702H77.1507C77.4127 9.80702 77.5 10.0439 77.2992 10.2456L70.3133 16.7983L77.7096 25.307C77.796 25.3741 77.8276 25.4907 77.787 25.5925C77.7465 25.6944 77.6436 25.7569 77.535 25.7456H74.042C73.7685 25.7689 73.5001 25.6617 73.3172 25.4561L67.7721 18.8947L66.2702 20.2983V25.3421C66.2846 25.4553 66.246 25.5688 66.1657 25.6495C66.0854 25.7302 65.9724 25.7689 65.8598 25.7544H63.3012C63.1885 25.7689 63.0755 25.7302 62.9952 25.6495C62.9149 25.5688 62.8763 25.4553 62.8907 25.3421V10.2018C62.8763 10.0886 62.9149 9.97508 62.9952 9.8944C63.0755 9.81371 63.1885 9.77497 63.3012 9.78948H65.8598L65.8772 9.80702Z" fill="black"/>
<path d="M87.3851 9.80702C88.9803 9.72832 90.5389 10.3042 91.7031 11.4026C92.8673 12.5009 93.5371 14.0274 93.5589 15.6316C93.5589 19.0263 90.9392 21.5088 87.3851 21.5088H83.1673V25.3421C83.1818 25.4553 83.1432 25.5688 83.0629 25.6495C82.9826 25.7302 82.8696 25.7689 82.7569 25.7544H80.1983C80.0857 25.7689 79.9727 25.7302 79.8923 25.6495C79.812 25.5688 79.7734 25.4553 79.7879 25.3421V10.2018C79.7734 10.0886 79.812 9.97508 79.8923 9.8944C79.9727 9.81371 80.0857 9.77497 80.1983 9.78948H87.3938L87.3851 9.80702ZM87.3851 18.2895C88.1149 18.3605 88.8399 18.1124 89.3748 17.6086C89.9098 17.1049 90.2029 16.3941 90.1794 15.6579C90.2118 14.9191 89.9213 14.2029 89.3843 13.6971C88.8472 13.1913 88.117 12.9463 87.3851 13.0263H83.1673V18.2895H87.3851Z" fill="black"/>
<path d="M109.469 9.80702C109.582 9.79251 109.695 9.83126 109.775 9.91194C109.856 9.99262 109.894 10.1061 109.88 10.2193V25.3421C109.894 25.4553 109.856 25.5688 109.775 25.6495C109.695 25.7302 109.582 25.7689 109.469 25.7544H106.911C106.798 25.7689 106.685 25.7302 106.605 25.6495C106.524 25.5688 106.486 25.4553 106.5 25.3421V12.9825H99.4533V25.3246C99.4677 25.4377 99.4291 25.5512 99.3488 25.6319C99.2685 25.7126 99.1555 25.7514 99.0428 25.7368H96.4842C96.3716 25.7514 96.2586 25.7126 96.1783 25.6319C96.0979 25.5512 96.0594 25.4377 96.0738 25.3246V10.2018C96.0594 10.0886 96.0979 9.97508 96.1783 9.8944C96.2586 9.81371 96.3716 9.77497 96.4842 9.78948H109.469V9.80702Z" fill="black"/>
<path d="M121.241 9.5614C125.728 9.66257 129.295 13.3804 129.23 17.8891C129.165 22.3978 125.492 26.01 121.003 25.9802C116.514 25.9504 112.89 22.2899 112.884 17.7807C112.883 15.5701 113.769 13.4524 115.342 11.9059C116.914 10.3593 119.04 9.51421 121.241 9.5614ZM116.289 17.7807C116.328 20.5061 118.55 22.6889 121.263 22.6665C123.977 22.644 126.163 20.4248 126.156 17.6991C126.15 14.9734 123.954 12.7643 121.241 12.7544C119.903 12.7037 118.606 13.2187 117.665 14.1742C116.724 15.1297 116.225 16.438 116.289 17.7807Z" fill="black"/>
<path d="M140.88 22.5439V10.2018C140.865 10.0886 140.904 9.97508 140.984 9.8944C141.065 9.81371 141.178 9.77497 141.29 9.78948H143.796C143.909 9.77497 144.022 9.81371 144.102 9.8944C144.183 9.97508 144.221 10.0886 144.207 10.2018V22.5439H149.184V10.2018C149.17 10.0886 149.208 9.97508 149.289 9.8944C149.369 9.81371 149.482 9.77497 149.595 9.78948H152.101C152.214 9.77497 152.327 9.81371 152.407 9.8944C152.487 9.97508 152.526 10.0886 152.511 10.2018V25.3246C152.526 25.4377 152.487 25.5512 152.407 25.6319C152.327 25.7126 152.214 25.7514 152.101 25.7368H132.986C132.876 25.7393 132.77 25.6966 132.693 25.6188C132.615 25.5409 132.573 25.4346 132.575 25.3246V10.2018C132.561 10.0886 132.599 9.97508 132.68 9.8944C132.76 9.81371 132.873 9.77497 132.986 9.78948H135.492C135.605 9.77497 135.718 9.81371 135.798 9.8944C135.878 9.97508 135.917 10.0886 135.902 10.2018V22.5439H140.88Z" fill="black"/>
<path d="M168.675 9.80701C168.788 9.7925 168.901 9.83125 168.981 9.91193C169.061 9.99261 169.1 10.1061 169.085 10.2193V12.614C169.1 12.7272 169.061 12.8407 168.981 12.9214C168.901 13.0021 168.788 13.0408 168.675 13.0263H163.61V25.307C163.625 25.4202 163.586 25.5337 163.506 25.6144C163.425 25.6951 163.312 25.7338 163.2 25.7193H160.641C160.528 25.7338 160.415 25.6951 160.335 25.6144C160.255 25.5337 160.216 25.4202 160.231 25.307V13.0263H155.192C155.079 13.0408 154.966 13.0021 154.886 12.9214C154.806 12.8407 154.767 12.7272 154.782 12.614V10.2193C154.767 10.1061 154.806 9.99261 154.886 9.91193C154.966 9.83125 155.079 9.7925 155.192 9.80701H168.701H168.675Z" fill="black"/>
<path d="M181.127 22.5789H173.207L172.098 25.386C172.031 25.603 171.826 25.7471 171.6 25.7368H168.719C168.43 25.7368 168.343 25.5877 168.43 25.3246L175.277 10.0263C175.335 9.8717 175.488 9.77488 175.652 9.78947H178.97C179.134 9.77488 179.288 9.8717 179.346 10.0263L185.895 25.2632C185.941 25.3692 185.928 25.4914 185.863 25.5861C185.797 25.6808 185.687 25.7345 185.572 25.7281H182.804C182.533 25.7374 182.287 25.5712 182.193 25.3158L181.127 22.5789ZM174.43 19.5088H179.957L177.399 12.9561H177.075L174.43 19.5088Z" fill="black"/>
<path d="M46.238 39.4035V32.614H50.709V33.4035H47.1375V39.4474H46.2642L46.238 39.4035Z" fill="black"/>
<path d="M58.5333 35.9298C58.5333 37.9298 57.433 39.5614 55.2761 39.5614C53.1192 39.5614 52.0189 37.8947 52.0189 35.9123C52.0189 33.7807 53.2851 32.4035 55.2674 32.4035C57.3893 32.4123 58.5333 33.8947 58.5333 35.9298ZM52.9184 35.9737C52.9184 37.6842 53.844 38.7807 55.2848 38.7807C56.7257 38.7807 57.6339 37.6667 57.6339 35.9737C57.6339 34.2807 56.7082 33.193 55.2674 33.193C53.6606 33.2017 52.9096 34.5263 52.9096 35.9825L52.9184 35.9737Z" fill="black"/>
<path d="M65.5629 39.4035H64.6896V33.3597H62.1747L62.0437 37.2018C62.0001 38.5702 61.5023 39.5439 60.4719 39.5439C60.251 39.5341 60.0329 39.4897 59.8257 39.4123V38.6491C59.9798 38.7165 60.1467 38.7494 60.3147 38.7456C60.8037 38.7456 61.1879 38.4737 61.1879 36.7456L61.3102 32.5877H65.5803V39.4123L65.5629 39.4035Z" fill="black"/>
<path d="M74.1905 35.9298C74.1905 37.9298 73.0902 39.5614 70.9333 39.5614C68.7764 39.5614 67.6761 37.8947 67.6761 35.9123C67.6761 33.7807 68.951 32.4035 70.9245 32.4035C73.0378 32.4123 74.1905 33.8947 74.1905 35.9298ZM68.5755 35.9737C68.5755 37.6842 69.5012 38.7807 70.942 38.7807C72.3828 38.7807 73.291 37.6667 73.291 35.9737C73.291 34.2807 72.3654 33.193 70.9245 33.193C69.3178 33.2017 68.5755 34.5263 68.5755 35.9825V35.9737Z" fill="black"/>
<path d="M79.2203 32.614C80.3468 32.614 81.3859 33.0614 81.3859 34.3246C81.3983 34.9786 80.9944 35.5678 80.3817 35.7895C81.2028 35.9484 81.7696 36.7076 81.6916 37.5439C81.6916 39.114 80.4079 39.4737 79.0718 39.4737H76.2687V32.614H79.2203ZM77.1944 35.5351H78.8099C79.5783 35.5351 80.4952 35.4737 80.4952 34.4561C80.4952 33.4386 79.7006 33.386 78.8972 33.386H77.1944V35.5439V35.5351ZM77.1944 38.6754H78.9932C79.8665 38.6754 80.7921 38.614 80.7921 37.4211C80.7921 36.2281 79.753 36.2456 78.8448 36.2456H77.2031V38.6842L77.1944 38.6754Z" fill="black"/>
<path d="M89.2189 39.4035H88.3456V36.2105H84.7566V39.4035H83.8834V32.614H84.7566V35.4649H88.3456V32.614H89.2189V39.4386V39.4035Z" fill="black"/>
<path d="M97.4099 39.4035H96.4057L95.6547 37.3158H92.7992L92.022 39.4035H91.0702L93.7423 32.5789H94.7552L97.4099 39.4035ZM94.2313 33.4386L93.0524 36.5965H95.384L94.2313 33.4386Z" fill="black"/>
<path d="M108.483 39.4035H107.609V33.3597H104.02V39.4035H103.147V32.614H108.535V39.4386L108.483 39.4035Z" fill="black"/>
<path d="M117.128 35.9298C117.128 37.9298 116.027 39.5614 113.87 39.5614C111.714 39.5614 110.613 37.8947 110.613 35.9123C110.613 33.7807 111.879 32.4035 113.862 32.4035C115.975 32.4123 117.128 33.8947 117.128 35.9298ZM111.513 35.9737C111.513 37.6842 112.438 38.7807 113.879 38.7807C115.32 38.7807 116.228 37.6667 116.228 35.9737C116.228 34.2807 115.303 33.193 113.862 33.193C112.255 33.2017 111.53 34.5263 111.53 35.9825L111.513 35.9737Z" fill="black"/>
<path d="M119.241 32.614H120.114V38.6579H123.135V32.614H124.009V38.6579H127.03V32.614H127.903V39.4386H119.171V32.614H119.241Z" fill="black"/>
<path d="M135.343 33.3597H133.064V39.4035H132.191V33.3597H129.868V32.614H135.335V33.4035L135.343 33.3597Z" fill="black"/>
<path d="M142.006 39.4035H141.002L140.251 37.3158H137.396L136.618 39.4035H135.667L138.339 32.614H139.352L142.006 39.4035ZM138.828 33.4386L137.649 36.5965H139.98L138.828 33.4386Z" fill="black"/>
<path d="M150.346 35.3158L153.323 39.4035H152.179L149.717 35.8947L148.59 37V39.3947H147.717V32.614H148.59V36L152.04 32.614H153.219L150.346 35.3158Z" fill="black"/>
<path d="M158.021 32.614C159.323 32.614 160.283 33.1579 160.283 34.579C160.283 36 159.288 36.6404 157.96 36.6404H156.118V39.4386H155.245V32.614H158.048H158.021ZM156.118 35.886H157.864C158.737 35.886 159.401 35.6491 159.401 34.6404C159.401 33.6316 158.624 33.3947 157.742 33.3947H156.135V35.886H156.118Z" fill="black"/>
<path d="M167.417 39.4035H166.413L165.671 37.3158H162.816L162.038 39.4035H161.086L163.759 32.5789H164.798L167.417 39.4035ZM164.239 33.4386L163.06 36.5965H165.392L164.239 33.4386Z" fill="black"/>
<path d="M169.286 31.9912H168.413V31.0263H169.286V31.9912ZM170.203 39.4035H169.33V32.614H170.203V39.4386V39.4035ZM171.076 31.9912H170.203V31.0263H171.076V31.9912Z" fill="black"/>
<path d="M178.08 39.4035H177.207V36.2105H173.617V39.4035H172.744V32.614H173.617V35.4649H177.207V32.614H178.08V39.4386V39.4035Z" fill="black"/>
<path d="M180.516 32.614H181.389V38.3947L184.725 32.614H185.86V39.4386H184.987V33.6404L181.643 39.4386H180.516V32.614Z" fill="black"/>
</g>
<defs>
<clipPath id="clip0_1_6">
<rect width="186" height="50" fill="white"/>
</clipPath>
</defs>
</svg>
